<?xml version="1.0" standalone="no"?>
<!DOCTYPE svg PUBLIC "-//W3C//DTD SVG 20010904//EN"
 "http://www.w3.org/TR/2001/REC-SVG-20010904/DTD/svg10.dtd">
<svg version="1.0" xmlns="http://www.w3.org/2000/svg"
 width="256.000000pt" height="256.000000pt" viewBox="0 0 256.000000 256.000000"
 preserveAspectRatio="xMidYMid meet">

<g transform="translate(0.000000,256.000000) scale(0.100000,-0.100000)"
fill="#000000" stroke="none">
<path d="M510 2254 c-208 -44 -395 -214 -439 -399 -17 -69 -15 -210 5 -297 85
-374 471 -768 1082 -1104 l115 -63 61 31 c182 91 450 264 608 391 102 81 308
281 308 298 0 4 -44 10 -97 11 l-98 3 -27 50 -27 50 -15 -35 c-8 -19 -25 -62
-38 -95 l-24 -60 -90 -5 -89 -5 -41 -115 c-23 -63 -46 -127 -52 -143 -13 -34
-48 -37 -61 -4 -5 12 -24 171 -41 352 -18 182 -33 331 -35 333 -1 1 -21 -95
-45 -215 -23 -120 -47 -224 -52 -231 -27 -32 -51 2 -124 178 l-15 35 -22 -40
-23 -40 -76 -3 c-75 -3 -78 -2 -84 22 -9 37 2 46 59 46 l52 0 35 62 c51 90 61
88 114 -24 27 -57 46 -87 49 -78 3 8 29 138 57 289 28 150 53 277 56 282 8 13
40 11 52 -4 10 -11 22 -129 73 -667 6 -63 12 -116 14 -118 2 -2 11 21 20 50
36 109 34 107 132 110 l87 3 45 115 c59 149 71 153 130 46 l42 -76 109 0 110
0 31 42 c48 67 117 215 139 302 27 108 27 260 0 348 -65 210 -288 366 -549
385 -152 10 -305 -28 -427 -108 -66 -43 -169 -144 -199 -196 -18 -31 -35 -43
-35 -24 0 4 -23 38 -51 75 -83 111 -221 199 -367 237 -90 23 -244 24 -342 3z
m375 -58 c103 -33 192 -86 270 -161 53 -51 115 -132 115 -150 0 -13 -755 10
-957 30 -29 3 -78 8 -108 11 l-55 5 21 42 c59 114 237 225 404 251 74 11 231
-3 310 -28z m1160 8 c89 -21 193 -75 254 -130 52 -47 114 -131 106 -145 -14
-21 -1115 -64 -1115 -43 0 16 66 98 127 154 167 158 400 219 628 164z"/>
</g>
</svg>
